<svg width="170" height="32" viewBox="0 0 170 32" fill="none" xmlns="http://www.w3.org/2000/svg">
<path d="M13.8943 5.76955C14.4843 3.95354 17.0535 3.95354 17.6436 5.76955L18.8667 9.53404C19.1306 10.3462 19.8874 10.896 20.7414 10.896H24.6996C26.609 10.896 27.403 13.3395 25.8582 14.4618L22.6559 16.7884C21.965 17.2903 21.676 18.18 21.9398 18.9922L23.163 22.7567C23.7531 24.5727 21.6746 26.0828 20.1298 24.9604L16.9275 22.6339C16.2367 22.1319 15.3012 22.1319 14.6103 22.6339L11.408 24.9604C9.86326 26.0828 7.78476 24.5727 8.37482 22.7567L9.59798 18.9922C9.86186 18.18 9.57278 17.2903 8.88193 16.7884L5.67966 14.4618C4.13487 13.3395 4.92878 10.896 6.83825 10.896H10.7965C11.6504 10.896 12.4072 10.3462 12.6711 9.53404L13.8943 5.76955Z" fill="#FCBF02"/>
<path d="M48.3888 5.76955C48.9788 3.95354 51.548 3.95354 52.1381 5.76955L53.3612 9.53404C53.6251 10.3462 54.3819 10.896 55.2359 10.896H59.1941C61.1035 10.896 61.8975 13.3395 60.3527 14.4618L57.1504 16.7884C56.4596 17.2903 56.1705 18.18 56.4344 18.9922L57.6575 22.7567C58.2476 24.5727 56.1691 26.0828 54.6243 24.9604L51.422 22.6339C50.7312 22.1319 49.7957 22.1319 49.1048 22.6339L45.9026 24.9604C44.3578 26.0828 42.2793 24.5727 42.8693 22.7567L44.0925 18.9922C44.3564 18.18 44.0673 17.2903 43.3764 16.7884L40.1742 14.4618C38.6294 13.3395 39.4233 10.896 41.3328 10.896H45.291C46.1449 10.896 46.9017 10.3462 47.1656 9.53404L48.3888 5.76955Z" fill="#FCBF02"/>
<path d="M82.8833 5.76955C83.4733 3.95354 86.0425 3.95354 86.6326 5.76955L87.8557 9.53404C88.1196 10.3462 88.8764 10.896 89.7304 10.896H93.6886C95.5981 10.896 96.392 13.3395 94.8472 14.4618L91.6449 16.7884C90.9541 17.2903 90.665 18.18 90.9289 18.9922L92.152 22.7567C92.7421 24.5727 90.6636 26.0828 89.1188 24.9604L85.9165 22.6339C85.2257 22.1319 84.2902 22.1319 83.5993 22.6339L80.3971 24.9604C78.8523 26.0828 76.7738 24.5727 77.3638 22.7567L78.587 18.9922C78.8509 18.18 78.5618 17.2903 77.8709 16.7884L74.6687 14.4618C73.1239 13.3395 73.9178 10.896 75.8273 10.896H79.7855C80.6394 10.896 81.3962 10.3462 81.6601 9.53404L82.8833 5.76955Z" fill="#FCBF02"/>
<path d="M117.378 5.76955C117.968 3.95354 120.537 3.95354 121.127 5.76955L122.35 9.53404C122.614 10.3462 123.371 10.896 124.225 10.896H128.183C130.092 10.896 130.886 13.3395 129.342 14.4618L126.139 16.7884C125.449 17.2903 125.159 18.18 125.423 18.9922L126.646 22.7567C127.237 24.5727 125.158 26.0828 123.613 24.9604L120.411 22.6339C119.72 22.1319 118.785 22.1319 118.094 22.6339L114.892 24.9604C113.347 26.0828 111.268 24.5727 111.858 22.7567L113.081 18.9922C113.345 18.18 113.056 17.2903 112.365 16.7884L109.163 14.4618C107.618 13.3395 108.412 10.896 110.322 10.896H114.28C115.134 10.896 115.891 10.3462 116.155 9.53404L117.378 5.76955Z" fill="#FCBF02"/>
<path d="M151.872 5.76955C152.462 3.95354 155.031 3.95354 155.622 5.76955L156.845 9.53404C157.109 10.3462 157.865 10.896 158.719 10.896H162.678C164.587 10.896 165.381 13.3395 163.836 14.4618L160.634 16.7884C159.943 17.2903 159.654 18.18 159.918 18.9922L161.141 22.7567C161.731 24.5727 159.653 26.0828 158.108 24.9604L154.905 22.6339C154.215 22.1319 153.279 22.1319 152.588 22.6339L149.386 24.9604C147.841 26.0828 145.763 24.5727 146.353 22.7567L147.576 18.9922C147.84 18.18 147.551 17.2903 146.86 16.7884L143.658 14.4618C142.113 13.3395 142.907 10.896 144.816 10.896H148.774C149.628 10.896 150.385 10.3462 150.649 9.53404L151.872 5.76955Z" fill="#FCBF02"/>
</svg>
