<svg width="48" height="48" viewBox="0 0 48 48" fill="none" xmlns="http://www.w3.org/2000/svg">
<g clip-path="url(#clip0_275_369)">
<path d="M24.0263 21.7739C23.1426 21.7739 22.4263 22.4903 22.4263 23.374C22.4262 24.0129 22.8016 24.5627 23.343 24.8192V26.7642C23.343 27.1415 23.6489 27.4474 24.0262 27.4474C24.4036 27.4474 24.7094 27.1416 24.7094 26.7642V24.8192C25.2509 24.5627 25.6263 24.0129 25.6263 23.374C25.6263 22.4903 24.91 21.7739 24.0263 21.7739Z" fill="#0B0B0B"/>
<path d="M41.0756 10.4202C38.1347 9.25647 35.8005 7.11316 34.5029 4.38522C34.1501 3.64338 33.3873 3.16394 32.5596 3.16394H15.4406C14.613 3.16394 13.8503 3.64328 13.4974 4.38522C12.1999 7.11316 9.86561 9.25647 6.92477 10.4202C6.09986 10.7465 5.56689 11.5329 5.56689 12.4234V16.5871C5.56689 22.0451 7.15849 27.4368 10.1696 32.1794C13.2101 36.9684 17.6157 40.9707 22.9101 43.7534L22.9963 43.7988C23.3107 43.9639 23.6554 44.0465 24.0002 44.0465C24.3448 44.0465 24.6896 43.9639 25.0038 43.7988L25.0903 43.7534C30.3848 40.9706 34.7904 36.9684 37.8309 32.1794C40.8419 27.4367 42.4335 22.045 42.4335 16.5871V12.4234C42.4335 11.5328 41.9004 10.7465 41.0756 10.4202ZM41.0673 16.5872C41.0673 21.7853 39.5493 26.9238 36.6775 31.4472C33.7647 36.0349 29.5381 39.8722 24.4549 42.5441L24.3684 42.5895C24.1378 42.7108 23.8626 42.7107 23.632 42.5895L23.5457 42.5442C18.4623 39.8723 14.2357 36.035 11.3229 31.4472C8.45102 26.9238 6.93302 21.7853 6.93302 16.5871V12.4234C6.93302 12.0971 7.12708 11.8094 7.42736 11.6906C10.6908 10.3993 13.2846 8.01325 14.7311 4.9721C14.8586 4.70369 15.1372 4.53025 15.4406 4.53025H32.5597C32.8631 4.53025 33.1415 4.70369 33.2692 4.9721C34.7157 8.01325 37.3096 10.3993 40.573 11.6907C40.8732 11.8095 41.0673 12.0972 41.0673 12.4235V16.5872Z" fill="#0B0B0B"/>
<path d="M44.5005 23.07C44.1325 22.9868 43.7667 23.2177 43.6837 23.5857C41.6032 32.7898 35.2668 40.772 26.299 45.4854L24.2151 46.5808C24.0805 46.6515 23.9198 46.6515 23.7853 46.5808L21.7013 45.4854C12.7195 40.7646 6.37997 32.7686 4.30819 23.5479C4.2256 23.1799 3.85997 22.9484 3.492 23.0312C3.12394 23.1139 2.89257 23.4793 2.97525 23.8474C5.13488 33.4597 11.7286 41.7872 21.0657 46.6947L23.1497 47.7901C23.416 47.93 23.7081 48 24.0002 48C24.2922 48 24.5844 47.93 24.8507 47.79L26.9347 46.6946C36.2571 41.7948 42.8475 33.4817 45.0163 23.8868C45.0994 23.5189 44.8685 23.1532 44.5005 23.07Z" fill="#0B0B0B"/>
<path d="M44.1679 7.81659C40.5202 7.43175 37.652 4.87134 37.1929 1.59028C37.0661 0.683625 36.2869 0 35.3805 0H12.6195C11.7132 0 10.9341 0.683625 10.8073 1.59028C10.3481 4.87144 7.47988 7.43175 3.83225 7.81659C2.90797 7.91409 2.21094 8.69494 2.21094 9.63281V16.9682C2.21094 18.0341 2.26616 19.1118 2.37509 20.1713C2.41128 20.5229 2.70791 20.7847 3.05384 20.7847C3.07719 20.7847 3.10081 20.7834 3.12453 20.781C3.49981 20.7425 3.77281 20.4069 3.73419 20.0317C3.63003 19.0183 3.57716 17.9876 3.57716 16.9682V9.63281C3.57716 9.39984 3.75219 9.19875 3.97559 9.17522C8.24834 8.72447 11.614 5.68322 12.1603 1.77956C12.1939 1.54003 12.3869 1.36622 12.6195 1.36622H35.3804C35.613 1.36622 35.8062 1.54003 35.8397 1.77956C36.3859 5.68322 39.7516 8.72438 44.0244 9.17522C44.2478 9.19875 44.4228 9.39984 44.4228 9.63281V16.9682C44.4228 17.9768 44.3711 18.9968 44.2691 20.0001C44.2309 20.3753 44.5043 20.7106 44.8796 20.7488C45.2547 20.7872 45.5901 20.5135 45.6283 20.1383C45.735 19.0894 45.789 18.0229 45.789 16.9682V9.63281C45.7891 8.69494 45.0922 7.91409 44.1679 7.81659Z" fill="#0B0B0B"/>
<path d="M31.8244 17.0498H30.7012V13.789C30.7012 10.1085 27.7069 7.1142 24.0263 7.1142C20.3457 7.1142 17.3514 10.1085 17.3514 13.789V17.0498H16.2282C15.0303 17.0498 14.0557 18.0244 14.0557 19.2224V29.0032C14.0557 30.2012 15.0303 31.1758 16.2282 31.1758H31.8244C33.0223 31.1758 33.9969 30.2012 33.9969 29.0032V19.2224C33.9969 18.0244 33.0223 17.0498 31.8244 17.0498ZM18.7177 13.7891C18.7177 10.8619 21.0991 8.48051 24.0264 8.48051C26.9536 8.48051 29.335 10.8619 29.335 13.7891V17.0499H18.7177V13.7891ZM32.6307 29.0032C32.6307 29.4478 32.2689 29.8096 31.8244 29.8096H16.2282C15.7836 29.8096 15.4219 29.4478 15.4219 29.0032V19.2224C15.4219 18.7778 15.7837 18.416 16.2282 18.416H31.8244C32.2689 18.416 32.6307 18.7777 32.6307 19.2224V29.0032Z" fill="#0B0B0B"/>
</g>
<defs>
<clipPath id="clip0_275_369">
<rect width="48" height="48" fill="white"/>
</clipPath>
</defs>
</svg>
