<svg width="48" height="48" viewBox="0 0 48 48" fill="none" xmlns="http://www.w3.org/2000/svg">
<path d="M37.2191 32.6501L40.246 41.6704C40.6699 42.9337 39.6151 44.201 38.2959 44.0135L33.759 43.3687L30.6496 46.7228C29.733 47.7115 28.0939 47.3712 27.6465 46.0994L25.2476 39.2795" stroke="#0B0B0B" stroke-width="1.40625" stroke-miterlimit="10" stroke-linecap="round" stroke-linejoin="round"/>
<path d="M8.24766 40.1986L7.75378 41.6704C7.32984 42.9337 8.38463 44.201 9.70388 44.0135L14.2407 43.3687L17.3501 46.7228C18.2667 47.7114 19.9058 47.3712 20.3532 46.0994L22.7476 39.2926" stroke="#0B0B0B" stroke-width="1.40625" stroke-miterlimit="10" stroke-linecap="round" stroke-linejoin="round"/>
<path d="M10.7863 32.6333L9.27466 37.1379" stroke="#0B0B0B" stroke-width="1.40625" stroke-miterlimit="10" stroke-linecap="round" stroke-linejoin="round"/>
<path d="M38.682 8.39736C40.548 9.35951 41.6469 11.3761 41.4221 13.4845L41.4215 13.49C41.2871 14.7511 41.626 16.0172 42.3724 17.0424L42.3795 17.0523C43.6859 18.8465 43.6859 21.2786 42.3795 23.0729L42.3724 23.0827C41.626 24.108 41.2871 25.3741 41.4215 26.6352L41.4221 26.6407C41.6578 28.8512 40.4385 30.9607 38.4056 31.8601C37.242 32.3748 36.3121 33.3047 35.7975 34.4682C34.8981 36.5012 32.7885 37.7204 30.578 37.4847L30.5726 37.4841C29.3115 37.3497 28.0454 37.6886 27.0201 38.435L27.0103 38.4422C25.216 39.7485 22.7839 39.7485 20.9896 38.4422L20.9798 38.435C19.9545 37.6886 18.6885 37.3497 17.4273 37.4841L17.4218 37.4847C15.2114 37.7204 13.1018 36.5012 12.2025 34.4682C11.6878 33.3047 10.7579 32.3748 9.59433 31.8601C7.56136 30.9607 6.34214 28.8512 6.57783 26.6406L6.57839 26.6352C6.71283 25.3741 6.37392 24.108 5.62748 23.0827L5.62036 23.0729C4.31405 21.2786 4.31405 18.8465 5.62036 17.0523L5.62748 17.0424C6.37392 16.0172 6.71283 14.7511 6.57839 13.49L6.57783 13.4844C6.34214 11.274 7.56136 9.16442 9.59433 8.26508C10.7579 7.75039 11.6878 6.82048 12.2025 5.65695C13.1018 3.62398 15.2114 2.40476 17.4219 2.64045L17.4273 2.64101C18.6885 2.77545 19.9545 2.43654 20.9798 1.69011L20.9896 1.68298C22.7839 0.376669 25.216 0.376669 27.0103 1.68298L27.0201 1.69011C28.0454 2.43654 29.3115 2.77545 30.5726 2.64101L30.5781 2.64045C32.7885 2.40476 34.8981 3.62398 35.7975 5.65695C35.9031 5.89573 36.0262 6.12476 36.1653 6.34236" stroke="#0B0B0B" stroke-width="1.40625" stroke-miterlimit="10" stroke-linecap="round" stroke-linejoin="round"/>
<path d="M24 32.25C30.731 32.25 36.1875 26.7935 36.1875 20.0625C36.1875 13.3315 30.731 7.875 24 7.875C17.269 7.875 11.8125 13.3315 11.8125 20.0625C11.8125 26.7935 17.269 32.25 24 32.25Z" stroke="#0B0B0B" stroke-width="1.40625" stroke-miterlimit="10" stroke-linecap="round" stroke-linejoin="round"/>
<path d="M16.0463 7.3425C18.3519 5.89772 21.0784 5.0625 24 5.0625C32.2843 5.0625 39 11.7782 39 20.0625C39 28.3468 32.2843 35.0625 24 35.0625C15.7157 35.0625 9 28.3468 9 20.0625C9 15.8899 10.7037 12.1152 13.4534 9.39619" stroke="#0B0B0B" stroke-width="1.40625" stroke-miterlimit="10" stroke-linecap="round" stroke-linejoin="round"/>
<path d="M28.7796 25.8628C28.4312 26.2278 28.0369 26.5552 27.6014 26.8364L24.0368 29.1377C24.0257 29.1449 24.0133 29.1486 24.0001 29.1486C23.9869 29.1486 23.9745 29.1449 23.9633 29.1377L20.3988 26.8364C18.5444 25.6393 17.4375 23.6043 17.4375 21.393V13.6203C17.805 13.6645 18.1755 13.6867 18.5445 13.6867C20.4937 13.6867 22.4219 13.0586 24 11.9137C25.578 13.0586 27.5061 13.6867 29.4556 13.6867C29.8245 13.6867 30.195 13.6645 30.5625 13.6203V21.393C30.5625 21.947 30.493 22.4898 30.3598 23.0113" stroke="#0B0B0B" stroke-width="1.40625" stroke-miterlimit="10" stroke-linecap="round" stroke-linejoin="round"/>
<path d="M27.1726 18.057L23.3917 22.9531L20.8274 20.0846" stroke="#0B0B0B" stroke-width="1.40625" stroke-miterlimit="10" stroke-linecap="round" stroke-linejoin="round"/>
</svg>
