<svg width="56" height="56" viewBox="0 0 56 56" fill="none" xmlns="http://www.w3.org/2000/svg">
<mask id="mask0_275_406" style="mask-type:luminance" maskUnits="userSpaceOnUse" x="0" y="0" width="56" height="56">
<path d="M0 3.8147e-06H56V56H0V3.8147e-06Z" fill="white"/>
</mask>
<g mask="url(#mask0_275_406)">
<path d="M50.4041 42.905C49.8851 44.8418 47.8943 46.412 45.9574 46.412C44.0204 46.412 42.871 44.8418 43.39 42.905C43.909 40.9681 45.8998 39.3979 47.8367 39.3979C49.7737 39.3979 50.9231 40.9681 50.4041 42.905Z" stroke="#0B0B0B" stroke-width="1.40625" stroke-miterlimit="10" stroke-linecap="round" stroke-linejoin="round"/>
<path d="M46.906 42.905H46.8972" stroke="#0B0B0B" stroke-width="1.40625" stroke-miterlimit="10" stroke-linecap="round" stroke-linejoin="round"/>
<path d="M23.2244 42.905C22.7054 44.8418 20.7146 46.412 18.7777 46.412C16.8407 46.412 15.6913 44.8418 16.2103 42.905C16.7293 40.9681 18.7201 39.3979 20.6571 39.3979C22.594 39.3979 23.7434 40.9681 23.2244 42.905Z" stroke="#0B0B0B" stroke-width="1.40625" stroke-miterlimit="10" stroke-linecap="round" stroke-linejoin="round"/>
<path d="M19.7263 42.905H19.7175" stroke="#0B0B0B" stroke-width="1.40625" stroke-miterlimit="10" stroke-linecap="round" stroke-linejoin="round"/>
<path d="M23.2246 42.905H43.3902" stroke="#0B0B0B" stroke-width="1.40625" stroke-miterlimit="10" stroke-linecap="round" stroke-linejoin="round"/>
<path d="M36.7676 20.1091H42.4842C42.9683 20.1091 43.2557 20.5016 43.126 20.9858L37.2528 42.9049" stroke="#0B0B0B" stroke-width="1.40625" stroke-miterlimit="10" stroke-linecap="round" stroke-linejoin="round"/>
<path d="M16.2104 42.905H11.8265C11.3423 42.905 11.055 42.5125 11.1847 42.0283L12.8293 35.8907" stroke="#0B0B0B" stroke-width="1.40625" stroke-miterlimit="10" stroke-linecap="round" stroke-linejoin="round"/>
<path d="M42.8911 21.8626H50.3194C51.1102 21.8626 51.6612 22.3918 51.665 23.1547L51.7049 31.5069L54.6694 33.6265C55.1127 33.9434 55.2829 34.5141 55.1178 35.1301L53.5044 41.1513C53.245 42.1198 52.2496 42.9049 51.2811 42.9049H50.4043" stroke="#0B0B0B" stroke-width="1.40625" stroke-miterlimit="10" stroke-linecap="round" stroke-linejoin="round"/>
<path d="M54.9139 35.8909H53.1604" stroke="#0B0B0B" stroke-width="1.40625" stroke-miterlimit="10" stroke-linecap="round" stroke-linejoin="round"/>
<path d="M49.6534 35.8909H39.1323" stroke="#0B0B0B" stroke-width="1.40625" stroke-miterlimit="10" stroke-linecap="round" stroke-linejoin="round"/>
<path d="M51.7047 31.5071H45.5674C44.599 31.5071 44.0242 30.722 44.2838 29.7536L44.9885 27.1232C45.248 26.1548 46.2434 25.3697 47.2118 25.3697H51.5957" stroke="#0B0B0B" stroke-width="1.40625" stroke-miterlimit="10" stroke-linecap="round" stroke-linejoin="round"/>
<path d="M33.2606 21.8626C33.2606 28.6417 27.7651 34.1373 20.9859 34.1373C14.2067 34.1373 8.71118 28.6417 8.71118 21.8626C8.71118 15.0835 14.2067 9.58789 20.9859 9.58789C27.7651 9.58789 33.2606 15.0835 33.2606 21.8626Z" stroke="#0B0B0B" stroke-width="1.40625" stroke-miterlimit="10" stroke-linecap="round" stroke-linejoin="round"/>
<path d="M22.7394 21.8626C22.7394 22.831 21.9543 23.6161 20.9859 23.6161C20.0174 23.6161 19.2324 22.831 19.2324 21.8626C19.2324 20.8942 20.0174 20.1091 20.9859 20.1091C21.9543 20.1091 22.7394 20.8942 22.7394 21.8626Z" stroke="#0B0B0B" stroke-width="1.40625" stroke-miterlimit="10" stroke-linecap="round" stroke-linejoin="round"/>
<path d="M22.3557 20.4927L27.1231 15.7253" stroke="#0B0B0B" stroke-width="1.40625" stroke-miterlimit="10" stroke-linecap="round" stroke-linejoin="round"/>
<path d="M17.4788 25.3698L19.6706 23.1778" stroke="#0B0B0B" stroke-width="1.40625" stroke-miterlimit="10" stroke-linecap="round" stroke-linejoin="round"/>
<path d="M20.9858 13.0949V13.9717" stroke="#0B0B0B" stroke-width="1.40625" stroke-miterlimit="10" stroke-linecap="round" stroke-linejoin="round"/>
<path d="M20.9858 29.7535V30.6302" stroke="#0B0B0B" stroke-width="1.40625" stroke-miterlimit="10" stroke-linecap="round" stroke-linejoin="round"/>
<path d="M29.7535 21.8627H28.8767" stroke="#0B0B0B" stroke-width="1.40625" stroke-miterlimit="10" stroke-linecap="round" stroke-linejoin="round"/>
<path d="M13.095 21.8627H12.2183" stroke="#0B0B0B" stroke-width="1.40625" stroke-miterlimit="10" stroke-linecap="round" stroke-linejoin="round"/>
<path d="M9.58792 33.2605H0.820312" stroke="#0B0B0B" stroke-width="1.40625" stroke-miterlimit="10" stroke-linecap="round" stroke-linejoin="round"/>
<path d="M8.71105 36.7676H3.45044" stroke="#0B0B0B" stroke-width="1.40625" stroke-miterlimit="10" stroke-linecap="round" stroke-linejoin="round"/>
<path d="M7.83431 40.2747H6.08081" stroke="#0B0B0B" stroke-width="1.40625" stroke-miterlimit="10" stroke-linecap="round" stroke-linejoin="round"/>
</g>
</svg>
